<svg xmlns="http://www.w3.org/2000/svg" version="1.1" xmlnsXlink="http://www.w3.org/1999/xlink" xmlnsSvgjs="http://svgjs.dev/svgjs" width="2000" height="212" viewBox="0 0 2000 212"><g transform="matrix(1,0,0,1,-1.2121212121213603,-0.2129556787808724)"><svg viewBox="0 0 396 42" data-background-color="#ffffff" preserveAspectRatio="xMidYMid meet" height="212" width="2000" xmlns="http://www.w3.org/2000/svg" xmlnsXlink="http://www.w3.org/1999/xlink"><defs></defs><g id="tight-bounds" transform="matrix(1,0,0,1,0.24000000000003752,0.042189332588662865)"><svg viewBox="0 0 395.5199999999999 41.91562133482267" height="41.91562133482267" width="395.5199999999999"><g><svg viewBox="0 0 395.52000000000004 41.915621334822674" height="41.91562133482267" width="395.5199999999999"><g><svg viewBox="0 0 395.52000000000004 41.915621334822674" height="41.915621334822674" width="395.52000000000004"><g><svg viewBox="0 0 395.52000000000004 41.915621334822674" height="41.915621334822674" width="395.52000000000004"><g><svg viewBox="0 0 395.52000000000004 41.915621334822674" height="41.915621334822674" width="395.52000000000004"><g transform="matrix(1,0,0,1,0,0)"><svg width="395.52000000000004" viewBox="3.7 -32.65 361.17 37.949999999999996" height="41.915621334822674" data-palette-color="#39cccc"><g class="undefined-text-0" data-fill-palette-color="primary" id="text-0"><path d="M21.15-5.6L21.55-5.05 21.1 0 3.7 0 4.05-9.6 3.7-32.2 10.6-32.2 10.2-10.2 10.35-5.6 21.15-5.6ZM41-32.2L50.85 0 43.95 0 43.15-4.2 42.3-7.2 36-7.35 30.45-7.2 29.6-4.55 28.75 0 22.05 0 32.95-32.2 41-32.2ZM36.5-12.35L40.85-12.45 37.05-25.85 36.6-25.85 32.2-12.45 36.5-12.35Z" fill="#39cccc" data-fill-palette-color="primary"></path><path d="M63.75-32.2L63.4-10.6 63.5-6.05Q63.5-3.2 62.55-1.2 61.6 0.8 59.48 2.35 57.35 3.9 53.65 5.3L53.65 5.3 51.6 1.7 51.6 1.1Q54.7-0.5 55.98-2.08 57.25-3.65 57.25-6.15L57.25-6.15 57.25-9.95 56.95-27.2 51.65-27.05 51.15-27.55 51.5-32.2 63.75-32.2ZM84.25-32.65Q91.05-32.65 94.72-28.53 98.4-24.4 98.4-16.8L98.4-16.8Q98.4-8.5 94.4-4 90.4 0.5 83.1 0.5L83.1 0.5Q76.35 0.5 72.67-3.73 69-7.95 69-15.7L69-15.7Q69-23.85 72.97-28.25 76.95-32.65 84.25-32.65L84.25-32.65ZM83.65-27.2Q79.65-27.2 77.85-24.7 76.05-22.2 76.05-16.55L76.05-16.55Q76.05-10.1 77.82-7.35 79.6-4.6 83.7-4.6L83.7-4.6Q87.7-4.6 89.5-7.13 91.3-9.65 91.3-15.4L91.3-15.4Q91.3-21.75 89.52-24.48 87.75-27.2 83.65-27.2L83.65-27.2ZM128.65-32.2L128.4-15.85 128.35-11.6Q128.4-5.85 124.99-2.7 121.6 0.45 115.24 0.45L115.24 0.45Q109.14 0.45 105.94-2.6 102.74-5.65 102.89-11.35L102.89-11.35 102.94-16 102.79-32.2 109.59-32.2 109.24-12.25Q109.19-8.6 110.79-6.85 112.39-5.1 115.65-5.1L115.65-5.1Q122.15-5.1 122.1-11.9L122.1-11.9 121.74-32.2 128.65-32.2ZM152.44-12.8Q156.34-6.6 160.19-1.6L160.19-1.6 160.09-0.85Q156.84 0.3 153.44 0.5L153.44 0.5 152.74-0.05Q149.14-6.25 146.89-10.85L146.89-10.85 142.04-10.85 142.04-10.2 142.34 0 135.54 0 135.89-9.6 135.54-32.2 147.89-32.25Q152.94-32.25 155.69-29.78 158.44-27.3 158.44-22.7L158.44-22.7Q158.44-19.6 156.87-17.03 155.29-14.45 152.44-12.8L152.44-12.8ZM142.34-27.05L142.14-16.1 147.09-15.9Q151.34-17.35 151.34-22.05L151.34-22.05Q151.34-24.6 149.97-25.88 148.59-27.15 145.74-27.25L145.74-27.25 142.34-27.05ZM192.04-32.3L191.64-9.95 191.89 0 184.59 0 171.44-21.8 171.04-21.8 170.99-11.1 171.19 0 165.04 0 165.39-9.5 165.09-32.2 172.34-32.2 185.49-10.4 185.94-10.4 185.79-31.9 192.04-32.3ZM212.09-5.3L220.04-5.6 220.44-5.05 219.99 0 199.79 0 200.14-9.6 199.79-32.2 220.19-32.2 220.59-31.65 220.09-26.6 212.39-26.85 206.59-26.8 206.44-19.05 211.99-18.95 217.24-19.1 217.64-18.6 217.19-13.55 211.49-13.7 206.34-13.65 206.29-10.2 206.44-5.35 212.09-5.3ZM238.09-11.1L237.99-8.95 238.29 0 231.54 0 231.84-8.95 231.79-10.85 221.54-32.2 228.74-32.2 229.44-29.95 234.89-17.7 235.34-17.7 241.44-29.75 242.39-32.2 249.34-32.2 238.09-11.1ZM270.38-5.6L270.78-5.05 270.33 0 252.93 0 253.28-9.6 252.93-32.2 259.83-32.2 259.43-10.2 259.58-5.6 270.38-5.6ZM281.68-32.2L281.28-10.2 281.58 0 274.78 0 275.13-9.6 274.78-32.2 281.68-32.2ZM299.88-32.6Q303.98-32.6 308.03-30.95L308.03-30.95 306.93-25.1 305.93-24.7Q304.23-25.9 302.4-26.6 300.58-27.3 299.08-27.3L299.08-27.3Q297.08-27.3 295.88-26.23 294.68-25.15 294.68-23.75L294.68-23.75Q294.68-22.3 296-21.3 297.33-20.3 300.18-18.95L300.18-18.95Q302.93-17.7 304.65-16.63 306.38-15.55 307.6-13.8 308.83-12.05 308.83-9.5L308.83-9.5Q308.83-6.75 307.33-4.48 305.83-2.2 303.08-0.88 300.33 0.45 296.73 0.45L296.73 0.45Q291.98 0.45 287.18-1.6L287.18-1.6 288.13-7.9 288.88-8.3Q290.88-6.55 293.25-5.63 295.63-4.7 297.48-4.7L297.48-4.7Q299.68-4.7 300.9-5.78 302.13-6.85 302.13-8.35L302.13-8.35Q302.13-9.95 300.8-10.95 299.48-11.95 296.53-13.35L296.53-13.35Q293.83-14.55 292.13-15.6 290.43-16.65 289.23-18.4 288.03-20.15 288.03-22.65L288.03-22.65Q288.03-25.45 289.53-27.73 291.03-30 293.73-31.3 296.43-32.6 299.88-32.6L299.88-32.6ZM334.58-32.2L334.98-31.65 334.58-26.6 328.53-26.9 326.53-26.9 326.28-10.2 326.58 0 319.78 0 320.13-9.6 319.88-26.9 317.88-26.9 311.73-26.6 311.28-27.15 311.73-32.2 334.58-32.2ZM355.02-32.2L364.87 0 357.97 0 357.17-4.2 356.32-7.2 350.02-7.35 344.47-7.2 343.62-4.55 342.77 0 336.07 0 346.97-32.2 355.02-32.2ZM350.52-12.35L354.87-12.45 351.07-25.85 350.62-25.85 346.22-12.45 350.52-12.35Z" fill="#332885" data-fill-palette-color="secondary"></path></g></svg></g></svg></g></svg></g></svg></g><g></g></svg></g></svg><rect width="395.5199999999999" height="41.91562133482267" fill="none" stroke="none" visibility="hidden"></rect></g></svg></g></svg>