<svg xmlns="http://www.w3.org/2000/svg" version="1.1" xmlnsXlink="http://www.w3.org/1999/xlink" xmlnsSvgjs="http://svgjs.dev/svgjs" width="2000" height="1500" viewBox="0 0 2000 1500"><rect width="2000" height="1500" fill="#56494c"></rect><g transform="matrix(0.75,0,0,0.75,249.090909090909,655.8362507462687)"><svg viewBox="0 0 396 50" data-background-color="#56494c" preserveAspectRatio="xMidYMid meet" height="252" width="2000" xmlns="http://www.w3.org/2000/svg" xmlnsXlink="http://www.w3.org/1999/xlink"><defs></defs><g id="tight-bounds" transform="matrix(1,0,0,1,0.2400000000000091,-0.08895522388058907)"><svg viewBox="0 0 395.52 50.17791044776119" height="50.17791044776119" width="395.52"><g><svg viewBox="0 0 395.52 50.17791044776119" height="50.17791044776119" width="395.52"><g><svg viewBox="0 0 395.52 50.17791044776119" height="50.17791044776119" width="395.52"><g><svg viewBox="0 0 395.52 50.17791044776119" height="50.17791044776119" width="395.52"><g><svg viewBox="0 0 395.52 50.17791044776119" height="50.17791044776119" width="395.52"><g transform="matrix(1,0,0,1,0,0)"><svg width="395.52" viewBox="1.75 -33.5 262.64000000000004 34" height="50.17791044776119" data-palette-color="#fff7ef"><g class="undefined-text-0" data-fill-palette-color="primary" id="text-0"><path d="M16.15-33.5L16.15-33.5Q20.6-33.5 23.85-31.83 27.1-30.15 29.35-26.9L29.35-26.9 25.75-23.45Q23.85-26.35 21.48-27.63 19.1-28.9 15.85-28.9L15.85-28.9Q13.45-28.9 11.9-28.25 10.35-27.6 9.63-26.53 8.9-25.45 8.9-24.1L8.9-24.1Q8.9-22.55 9.98-21.4 11.05-20.25 14-19.6L14-19.6 20.7-18.1Q25.5-17.05 27.5-14.9 29.5-12.75 29.5-9.45L29.5-9.45Q29.5-6.4 27.85-4.15 26.2-1.9 23.28-0.7 20.35 0.5 16.4 0.5L16.4 0.5Q12.9 0.5 10.1-0.4 7.3-1.3 5.2-2.85 3.1-4.4 1.75-6.4L1.75-6.4 5.45-10.1Q6.5-8.35 8.1-6.98 9.7-5.6 11.83-4.85 13.95-4.1 16.55-4.1L16.55-4.1Q18.85-4.1 20.53-4.65 22.2-5.2 23.08-6.28 23.95-7.35 23.95-8.85L23.95-8.85Q23.95-10.3 22.98-11.4 22-12.5 19.35-13.1L19.35-13.1 12.1-14.75Q9.1-15.4 7.15-16.6 5.2-17.8 4.25-19.53 3.3-21.25 3.3-23.4L3.3-23.4Q3.3-26.2 4.83-28.48 6.35-30.75 9.25-32.13 12.15-33.5 16.15-33.5ZM61.6 0L37 0 37-33 60.9-33 60.9-28.4 42.35-28.4 42.35-18.9 56.85-18.9 56.85-14.4 42.35-14.4 42.35-4.6 61.6-4.6 61.6 0ZM93.4 0L68.8 0 68.8-33 92.7-33 92.7-28.4 74.15-28.4 74.15-18.9 88.65-18.9 88.65-14.4 74.15-14.4 74.15-4.6 93.4-4.6 93.4 0Z" fill="#fff7ef" data-fill-palette-color="primary"></path><path d="M94.9-33L122.85-33 122.85-28.4 111.55-28.4 111.55 0 106.2 0 106.2-28.4 94.9-28.4 94.9-33ZM129.25-33L142.7-33Q148-33 151.12-30.35 154.25-27.7 154.25-23.2L154.25-23.2Q154.25-18.55 151.12-16.03 148-13.5 142.7-13.5L142.7-13.5 142.2-13.2 134.55-13.2 134.55 0 129.25 0 129.25-33ZM134.55-17.65L142.3-17.65Q145.55-17.65 147.12-18.98 148.7-20.3 148.7-23.05L148.7-23.05Q148.7-25.75 147.12-27.1 145.55-28.45 142.3-28.45L142.3-28.45 134.55-28.45 134.55-17.65ZM140.85-14.45L145.45-16.55 156.2 0 150.05 0 140.85-14.45ZM162.85-33L168.2-33 168.2 0 162.85 0 162.85-33ZM177.99-33L190.69-33Q194.24-33 196.82-31.75 199.39-30.5 200.84-28.2 202.29-25.9 202.29-22.65L202.29-22.65Q202.29-19.45 200.84-17.13 199.39-14.8 196.82-13.55 194.24-12.3 190.69-12.3L190.69-12.3 183.34-12.3 183.34 0 177.99 0 177.99-33ZM183.34-16.9L189.84-16.9Q193.39-16.9 195.07-18.38 196.74-19.85 196.74-22.65L196.74-22.65Q196.74-25.5 195.07-26.98 193.39-28.45 189.84-28.45L189.84-28.45 183.34-28.45 183.34-16.9ZM211.29-6.75L211.29-6.75Q212.99-6.75 214.02-5.78 215.04-4.8 215.04-3.15L215.04-3.15Q215.04-1.5 214.02-0.5 212.99 0.5 211.29 0.5L211.29 0.5Q209.54 0.5 208.52-0.5 207.49-1.5 207.49-3.15L207.49-3.15Q207.49-4.8 208.52-5.78 209.54-6.75 211.29-6.75Z" fill="#b2fcfb" data-fill-palette-color="secondary"></path><path d="M219.94-33L225.29-33 225.29 0 219.94 0 219.94-33ZM248.79-33.5L248.79-33.5Q253.59-33.5 257.09-31.45 260.59-29.4 262.49-25.6 264.39-21.8 264.39-16.5L264.39-16.5Q264.39-11.2 262.49-7.4 260.59-3.6 257.09-1.55 253.59 0.5 248.79 0.5L248.79 0.5Q244.04 0.5 240.54-1.55 237.04-3.6 235.14-7.4 233.24-11.2 233.24-16.5L233.24-16.5Q233.24-21.8 235.14-25.6 237.04-29.4 240.54-31.45 244.04-33.5 248.79-33.5ZM248.79-28.85L248.79-28.85Q245.69-28.85 243.46-27.4 241.24-25.95 240.04-23.2 238.84-20.45 238.84-16.5L238.84-16.5Q238.84-12.6 240.04-9.83 241.24-7.05 243.46-5.6 245.69-4.15 248.79-4.15L248.79-4.15Q251.94-4.15 254.16-5.6 256.39-7.05 257.59-9.83 258.79-12.6 258.79-16.5L258.79-16.5Q258.79-20.45 257.59-23.2 256.39-25.95 254.16-27.4 251.94-28.85 248.79-28.85Z" fill="#fff7ef" data-fill-palette-color="primary"></path></g></svg></g></svg></g></svg></g></svg></g></svg></g></svg><rect width="395.52" height="50.17791044776119" fill="none" stroke="none" visibility="hidden"></rect></g></svg></g></svg>